<?xml version="1.0" encoding="utf-8"?>
<!-- Generator: Adobe Illustrator 15.0.0, SVG Export Plug-In . SVG Version: 6.00 Build 0)  -->
<!DOCTYPE svg PUBLIC "-//W3C//DTD SVG 1.1//EN" "http://www.w3.org/Graphics/SVG/1.1/DTD/svg11.dtd">
<svg version="1.1"
	 id="svg2" sodipodi:version="0.32" inkscape:version="0.46" sodipodi:docname="Silver - replace this image female.svg" xmlns:dc="http://purl.org/dc/elements/1.1/" xmlns:cc="http://creativecommons.org/ns#" xmlns:rdf="http://www.w3.org/1999/02/22-rdf-syntax-ns#" xmlns:svg="http://www.w3.org/2000/svg" xmlns:sodipodi="http://sodipodi.sourceforge.net/DTD/sodipodi-0.dtd" xmlns:inkscape="http://www.inkscape.org/namespaces/inkscape" inkscape:output_extension="org.inkscape.output.svg.inkscape"
	 xmlns="http://www.w3.org/2000/svg" xmlns:xlink="http://www.w3.org/1999/xlink" x="0px" y="0px" width="200px" height="200px"
	 viewBox="0 0 200 200" enable-background="new 0 0 200 200" xml:space="preserve">
<sodipodi:namedview  id="base" inkscape:window-width="640" inkscape:pageopacity="0.0" inkscape:pageshadow="2" inkscape:window-height="480" objecttolerance="10.0" showgrid="false" gridtolerance="10.0" guidetolerance="10.0" bordercolor="#666666" pagecolor="#ffffff" borderopacity="1.0">
	</sodipodi:namedview>
<defs>
	
	
		<inkscape:perspective  id="perspective8" inkscape:vp_z="200 : 100 : 1" sodipodi:type="inkscape:persp3d" inkscape:vp_y="0 : 1000 : 0" inkscape:vp_x="0 : 100 : 1" inkscape:persp3d-origin="100 : 66.666667 : 1">
		</inkscape:perspective>
	
		<inkscape:perspective  id="perspective2386" inkscape:vp_z="744.09448 : 526.18109 : 1" sodipodi:type="inkscape:persp3d" inkscape:vp_y="0 : 1000 : 0" inkscape:vp_x="0 : 526.18109 : 1" inkscape:persp3d-origin="372.04724 : 350.78739 : 1">
		</inkscape:perspective>
</defs>
<path id="path4" fill="#808080" d="M119.224,11.282c6.685,4.035,12.346,5.318,19.104,19.941
	c9.826,21.264,9.719,26.024,13.842,18.612c-0.788,1.92-1.523,3.821-0.949,5.234c0.822,0.868,1.645,0.536,2.466,0
	c-0.483,0.706,0.169,3.493,1.327,1.357c0.822-1.516,0.758-1.551,0.758-1.551c0.573,1.338,0.268,2.996,0.38,3.49
	c1.138,1.431,2.275-1.006,3.413-3.49c0.254,2.089,0.084,4.375-1.517,6.591c3.778,1.603,3.862-2.994,3.034-6.204
	c1.257,2.058,2.256,4.365,1.517,8.336c0.442,0.779,0.885-0.956,1.327-1.551c-0.128,1.146-0.002,3.209-1.043,3.538
	c0.677,0.244,1.535,0.945,2.797-0.485c0.129,3.48-0.881,5.853-5.641,4.847c1.416,0.946,1.643,7.617,4.266,2.763
	c0.939,1.448-0.695,2.414-1.469,5.38c-0.465,6.951-4.881,6.044-7.396,8.918c-0.649,3.119-1.194,3.996-2.165,6.301
	c-0.618,1.47,3.757,4.73,3.928-1.619c0.719,6.393-4.811,3.979-6.766,7.001c-0.701,0.689-1.479,1.229-2.345,1.598
	c-5.938,3.666-9.185,13.617-11.757,14.831c-0.863,0.897-6.395,0.792-9.291,0.29c-1.457,3.539-2.604,5.27-4.693,7.174
	c-2.304,5.036-4.119,16.699,2.987,22.488c11.794,9.61,15.394,12.439,30.481,15.655c33.45,7.131,30.338,24.971,36.676,39.356
	L7.563,199.931c5.465-13.586,2.909-31.618,36.572-39.931c12.232-3.02,17.244-5.855,27.542-14.781
	c6.423-5.568,5.121-16.931,3.697-23.071c-5.12-0.571-7.771-1.982-8.722-3.974c-2.453,0.001-5.113,0.451-5.12-4.799
	c-6.638,3.116-9.638-2.104-12.705-7.174c-3.034-1.514-6.792-0.938-7.822-8.239l-0.853-2.375c-1.403-2.001-0.753-4.809-0.616-7.416
	c0.9,1.376,1.422,1.716,2.323,2.229c-6.76-8.162-2.725-13.14-3.65-19.581c1.673,0.939,3.056,0.468,4.456-0.339l-2.939-0.679
	c0,0,12.172-0.23,5.688-0.969c-5.004-0.57-4.74-3.441-4.74-3.441c1.455,0.828,2.76,1.939,4.219,0.63
	c-0.009-1.729,0.504-3.13,2.133-3.829c-2.06-3.081,1.279-10.63-0.285-14.007c0.926,0.658,1.55,2.194,3.176,0.824
	c1.038-2.786,1.587-3.794,3.129-4.265c0.923-2.781,2.317-4.744,4.503-5.331c0,0,2.856-9.209,4.835-12.457
	c4.823-7.913,6.874-9.617,15.975-15.433c8.956-5.723,15.936-6.046,20.432-3.732c2.567,1.321,4.243,1.503,5.404,1.503
	C107.539,9.295,110.111,5.782,119.224,11.282z"/>
</svg>
