<?xml version="1.0" encoding="UTF-8" standalone="no"?>
<svg xmlns="http://www.w3.org/2000/svg" version="1.0" width="200" height="200">
  <path
     d="M 3.1479956,199.8792 C 3.2975635,189.11012 3.401856,181.58351 3.0839455,167.62229 C 10.105706,158.82749 34.823782,154.79402 41.576501,152.37892 C 50.290941,145.87438 60.163612,140.3389 68.674128,135.43826 C 73.373849,132.73205 73.434971,123.45565 73.090981,117.22608 C 71.529518,108.40367 70.704151,100.79588 64.405541,94.317884 C 64.053201,92.46819 63.024431,88.22384 59.931471,82.679233 C 57.850015,73.360874 49.646154,61.821919 51.707332,55.90224 C 57.196471,40.137595 52.40075,33.731056 55.771462,32.383588 C 63.458756,29.310542 65.537537,22.590118 72.578356,15.841971 C 93.149082,11.923669 89.987081,1.4887794 105.35709,3.5044295 C 124.4076,6.0027415 113.91578,8.8197325 126.98208,15.459115 C 143.03475,23.615971 133.46982,24.442181 148.12438,46.038481 C 156.82644,58.862616 139.87501,59.736843 144.26704,71.085333 C 148.3243,81.568657 138.76017,83.355833 133.93493,94.828249 C 129.30575,105.83459 126.40093,109.0707 131.73108,123.57794 C 136.68074,137.04961 144.89857,130.89422 163.46019,151.07177 C 168.1733,156.1952 185.10612,149.99341 196.76509,164.95509 C 196.75779,172.625 196.92784,183.5909 196.98027,199.93748 C 144.72386,199.75031 3.1479956,199.8792 3.1479956,199.8792 z"
     fill="#808080"/>
</svg>

